<?xml version="1.0" encoding="iso-8859-1"?>
<!-- Generator: Adobe Illustrator 19.0.0, SVG Export Plug-In . SVG Version: 6.00 Build 0)  -->
<svg version="1.1" id="Capa_1" xmlns="http://www.w3.org/2000/svg" xmlns:xlink="http://www.w3.org/1999/xlink" x="0px" y="0px"
	 viewBox="0 0 493.956 493.956" style="enable-background:new 0 0 493.956 493.956;" xml:space="preserve">
<g>
	<rect x="238.976" y="46.963" style="fill:#FFBE00;" width="16" height="24"/>
	
		<rect x="440.34" y="22.94" transform="matrix(-0.7071 0.7071 -0.7071 -0.7071 812.2134 -274.549)" style="fill:#FFBE00;" width="45.256" height="16"/>
	<rect x="454.976" y="238.963" style="fill:#FFBE00;" width="32" height="16"/>
	<rect x="238.976" y="6.963" style="fill:#FFBE00;" width="16" height="24"/>
	<rect x="422.976" y="238.963" style="fill:#FFBE00;" width="16" height="16"/>
	
		<rect x="408.985" y="168.549" transform="matrix(-0.9238 0.3828 -0.3828 -0.9238 869.7917 180.0247)" style="fill:#FFBE00;" width="16" height="16"/>
	
		<rect x="389.368" y="80.562" transform="matrix(-0.7071 0.7071 -0.7071 -0.7071 754.6298 -135.4533)" style="fill:#FFBE00;" width="32" height="16"/>
	
		<rect x="369.079" y="108.881" transform="matrix(-0.7071 0.7071 -0.7071 -0.7071 726.3616 -67.1074)" style="fill:#FFBE00;" width="16" height="16"/>
	
		<rect x="309.396" y="68.975" transform="matrix(-0.3828 0.9238 -0.9238 -0.3828 510.0098 -186.777)" style="fill:#FFBE00;" width="16" height="16"/>
	
		<rect x="437.015" y="148.644" transform="matrix(-0.9238 0.3828 -0.3828 -0.9238 954.5737 123.3435)" style="fill:#FFBE00;" width="56" height="16"/>
	
		<rect x="309.287" y="20.933" transform="matrix(-0.3828 0.9238 -0.9238 -0.3828 493.1329 -271.5873)" style="fill:#FFBE00;" width="56" height="16"/>
	
		<rect x="22.979" y="8.338" transform="matrix(-0.7071 0.7071 -0.7071 -0.7071 74.7817 30.9569)" style="fill:#FFBE00;" width="16" height="45.256"/>
	<rect x="6.976" y="238.963" style="fill:#FFBE00;" width="32" height="16"/>
	<rect x="54.976" y="238.963" style="fill:#FFBE00;" width="16" height="16"/>
	
		<rect x="68.994" y="168.539" transform="matrix(-0.3827 0.9239 -0.9239 -0.3827 269.5592 172.9737)" style="fill:#FFBE00;" width="16" height="16"/>
	
		<rect x="80.615" y="72.571" transform="matrix(-0.7071 0.7071 -0.7071 -0.7071 213.9048 88.5406)" style="fill:#FFBE00;" width="16" height="32"/>
	
		<rect x="108.871" y="108.854" transform="matrix(-0.7071 0.7071 -0.7071 -0.7071 282.1391 116.8417)" style="fill:#FFBE00;" width="16" height="16"/>
	
		<rect x="168.578" y="68.964" transform="matrix(-0.9239 0.3827 -0.3827 -0.9239 369.1681 80.4864)" style="fill:#FFBE00;" width="16" height="16"/>
	
		<rect x="20.942" y="128.653" transform="matrix(-0.3827 0.9239 -0.9239 -0.3827 184.7452 189.8634)" style="fill:#FFBE00;" width="16" height="56"/>
	
		<rect x="148.662" y="0.93" transform="matrix(-0.9239 0.3827 -0.3827 -0.9239 312.4691 -4.2946)" style="fill:#FFBE00;" width="16" height="56"/>
	<rect x="238.976" y="422.963" style="fill:#FFBE00;" width="16" height="24"/>
	
		<rect x="454.967" y="440.327" transform="matrix(-0.7071 0.7071 -0.7071 -0.7071 1117.693 462.9463)" style="fill:#FFBE00;" width="16" height="45.256"/>
	<rect x="238.976" y="462.963" style="fill:#FFBE00;" width="16" height="24"/>
	
		<rect x="408.974" y="309.368" transform="matrix(-0.3827 0.9239 -0.9239 -0.3827 869.7657 53.6094)" style="fill:#FFBE00;" width="16" height="16"/>
	
		<rect x="397.369" y="389.355" transform="matrix(-0.7071 0.7071 -0.7071 -0.7071 978.6382 405.3456)" style="fill:#FFBE00;" width="16" height="32"/>
	
		<rect x="369.05" y="369.043" transform="matrix(-0.7071 0.7071 -0.7071 -0.7071 910.2744 377.0388)" style="fill:#FFBE00;" width="16" height="16"/>
	
		<rect x="309.397" y="408.959" transform="matrix(-0.9239 0.3827 -0.3827 -0.9239 770.211 680.6925)" style="fill:#FFBE00;" width="16" height="16"/>
	
		<rect x="456.994" y="309.334" transform="matrix(-0.3827 0.9239 -0.9239 -0.3827 954.5972 36.8316)" style="fill:#FFBE00;" width="16" height="56"/>
	
		<rect x="329.296" y="437.026" transform="matrix(-0.9239 0.3827 -0.3827 -0.9239 826.8772 765.574)" style="fill:#FFBE00;" width="16" height="56"/>
	
		<rect x="8.391" y="454.96" transform="matrix(-0.7071 0.7071 -0.7071 -0.7071 380.315 768.3886)" style="fill:#FFBE00;" width="45.256" height="16"/>
	
		<rect x="68.988" y="309.384" transform="matrix(-0.9238 0.3828 -0.3828 -0.9238 269.6088 581.1196)" style="fill:#FFBE00;" width="16" height="16"/>
	
		<rect x="72.616" y="397.357" transform="matrix(-0.7071 0.7071 -0.7071 -0.7071 437.9076 629.3258)" style="fill:#FFBE00;" width="32" height="16"/>
	
		<rect x="108.849" y="369.028" transform="matrix(-0.7071 0.7071 -0.7071 -0.7071 466.0735 561.0016)" style="fill:#FFBE00;" width="16" height="16"/>
	
		<rect x="168.577" y="408.978" transform="matrix(-0.3828 0.9238 -0.9238 -0.3828 629.3876 413.4738)" style="fill:#FFBE00;" width="16" height="16"/>
	
		<rect x="0.947" y="329.282" transform="matrix(-0.9238 0.3828 -0.3828 -0.9238 184.8027 637.7908)" style="fill:#FFBE00;" width="56" height="16"/>
	
		<rect x="128.634" y="456.98" transform="matrix(-0.3828 0.9238 -0.9238 -0.3828 646.1564 498.2752)" style="fill:#FFBE00;" width="56" height="16"/>
</g>
<path style="fill:#3F708D;" d="M226.385,282.628l-50.739,5.518l30.147-41.183l-30.147-41.183l50.739,5.518l20.591-46.7V94.963
	c-8,16-29.918,24-56,24c-17.673,0-32,14.327-32,32h-24v24h-0.222c-13.132,0-23.778,10.646-23.778,23.778
	c0,15.794-7.239,35.081-16,48.222c8.761,13.141,16,32.428,16,48.222c0,13.132,10.646,23.778,23.778,23.778h0.222v24h24
	c0,17.673,14.327,32,32,32c26.082,0,48,0,56,24v-69.635L226.385,282.628z"/>
<path style="fill:#2E5166;" d="M382.976,198.741c0-13.132-10.646-23.778-23.778-23.778h-0.222v-24h-24c0-17.673-14.327-32-32-32
	c-26.082,0-48-8-56-24v69.635l20.591,46.7l50.739-5.518l-30.147,41.183l30.147,41.183l-50.739-5.518l-20.591,46.7v69.635
	c8-24,29.918-24,56-24c17.673,0,32-14.327,32-32h24v-24h0.222c13.132,0,23.778-10.646,23.778-23.778
	c0-15.794,7.239-35.081,16-48.222C390.215,233.822,382.976,214.535,382.976,198.741z"/>
<polygon style="fill:#E15D2D;" points="267.567,282.628 318.306,288.146 288.158,246.963 318.306,205.781 267.567,211.298 
	246.976,164.598 246.976,329.328 "/>
<polygon style="fill:#F88756;" points="175.646,205.781 205.793,246.963 175.646,288.146 226.385,282.628 246.976,329.328 
	246.976,164.598 226.385,211.298 "/>
<path d="M366.976,326.003c13.773-3.48,24-15.977,24-30.816c0-13.043,5.891-30.637,14.656-43.785c1.793-2.688,1.793-6.188,0-8.875
	c-8.766-13.148-14.656-30.742-14.656-43.785c0-14.793-10.16-27.254-24-30.781v-16.996c0-4.418-3.582-8-8-8h-16.805
	c-3.715-18.234-19.879-32-39.195-32c-24.457,0-42.715-7.32-48.844-19.578c-2.711-5.422-11.602-5.422-14.313,0
	c-6.129,12.258-24.387,19.578-48.844,19.578c-19.316,0-35.48,13.766-39.195,32h-16.805c-4.418,0-8,3.582-8,8v16.961
	c-13.773,3.48-24,15.977-24,30.816c0,13.043-5.891,30.637-14.656,43.785c-1.793,2.688-1.793,6.188,0,8.875
	c8.766,13.148,14.656,30.742,14.656,43.785c0,14.793,10.16,27.254,24,30.781v16.996c0,4.418,3.582,8,8,8h16.805
	c3.715,18.234,19.879,32,39.195,32c27.754,0,42.508,0.824,48.41,18.531c1.09,3.266,4.145,5.469,7.59,5.469s6.5-2.203,7.59-5.469
	c5.902-17.707,20.656-18.531,48.41-18.531c19.316,0,35.48-13.766,39.195-32h16.805c4.418,0,8-3.582,8-8V326.003z M358.976,310.963
	c-4.418,0-8,3.582-8,8v16h-16c-4.418,0-8,3.582-8,8c0,13.234-10.766,24-24,24c-21.289,0-43.16,0-56,15.395
	c-12.84-15.395-34.711-15.395-56-15.395c-13.234,0-24-10.766-24-24c0-4.418-3.582-8-8-8h-16v-16c0-4.418-3.805-8-8.223-8
	c-8.699,0-15.777-7.078-15.777-15.777c0-14.711-5.621-33.125-14.555-48.223c8.934-15.098,14.555-33.512,14.555-48.223
	c0-8.699,7.078-15.777,16-15.777c4.418,0,8-3.582,8-8v-16h16c4.418,0,8-3.582,8-8c0-13.234,10.766-24,24-24
	c24.809,0,44.473-6.59,56-18.422c11.527,11.832,31.191,18.422,56,18.422c13.234,0,24,10.766,24,24c0,4.418,3.582,8,8,8h16v16
	c0,4.418,3.805,8,8.223,8c8.699,0,15.777,7.078,15.777,15.777c0,14.711,5.621,33.125,14.555,48.223
	c-8.934,15.098-14.555,33.512-14.555,48.223C374.976,303.885,367.898,310.963,358.976,310.963z"/>
<rect x="238.976" y="46.963" width="16" height="24"/>
<rect x="440.34" y="22.94" transform="matrix(-0.7071 0.7071 -0.7071 -0.7071 812.2134 -274.549)" width="45.256" height="16"/>
<rect x="454.976" y="238.963" width="32" height="16"/>
<rect x="238.976" y="6.963" width="16" height="24"/>
<rect x="422.976" y="238.963" width="16" height="16"/>
<rect x="408.985" y="168.549" transform="matrix(-0.9238 0.3828 -0.3828 -0.9238 869.7917 180.0247)" width="16" height="16"/>
<rect x="389.368" y="80.562" transform="matrix(-0.7071 0.7071 -0.7071 -0.7071 754.6298 -135.4533)" width="32" height="16"/>
<rect x="369.079" y="108.881" transform="matrix(-0.7071 0.7071 -0.7071 -0.7071 726.3616 -67.1074)" width="16" height="16"/>
<rect x="309.396" y="68.975" transform="matrix(-0.3828 0.9238 -0.9238 -0.3828 510.0098 -186.777)" width="16" height="16"/>
<rect x="437.015" y="148.644" transform="matrix(-0.9238 0.3828 -0.3828 -0.9238 954.5737 123.3435)" width="56" height="16"/>
<rect x="309.287" y="20.933" transform="matrix(-0.3828 0.9238 -0.9238 -0.3828 493.1329 -271.5873)" width="56" height="16"/>
<rect x="22.979" y="8.338" transform="matrix(-0.7071 0.7071 -0.7071 -0.7071 74.7817 30.9569)" width="16" height="45.256"/>
<rect x="6.976" y="238.963" width="32" height="16"/>
<rect x="54.976" y="238.963" width="16" height="16"/>
<rect x="68.994" y="168.539" transform="matrix(-0.3827 0.9239 -0.9239 -0.3827 269.5592 172.9737)" width="16" height="16"/>
<rect x="80.615" y="72.571" transform="matrix(-0.7071 0.7071 -0.7071 -0.7071 213.9048 88.5406)" width="16" height="32"/>
<rect x="108.871" y="108.854" transform="matrix(-0.7071 0.7071 -0.7071 -0.7071 282.1391 116.8417)" width="16" height="16"/>
<rect x="168.579" y="68.963" transform="matrix(-0.9238 0.3828 -0.3828 -0.9238 369.1703 80.4667)" width="16" height="16"/>
<rect x="20.942" y="128.653" transform="matrix(-0.3827 0.9239 -0.9239 -0.3827 184.7452 189.8634)" width="16" height="56"/>
<rect x="148.662" y="0.93" transform="matrix(-0.9239 0.3827 -0.3827 -0.9239 312.4691 -4.2946)" width="16" height="56"/>
<rect x="238.976" y="422.963" width="16" height="24"/>
<rect x="454.967" y="440.327" transform="matrix(-0.7071 0.7071 -0.7071 -0.7071 1117.693 462.9463)" width="16" height="45.256"/>
<rect x="238.976" y="462.963" width="16" height="24"/>
<rect x="408.974" y="309.368" transform="matrix(-0.3827 0.9239 -0.9239 -0.3827 869.7657 53.6094)" width="16" height="16"/>
<rect x="397.369" y="389.355" transform="matrix(-0.7071 0.7071 -0.7071 -0.7071 978.6382 405.3456)" width="16" height="32"/>
<rect x="369.05" y="369.043" transform="matrix(-0.7071 0.7071 -0.7071 -0.7071 910.2744 377.0388)" width="16" height="16"/>
<rect x="309.398" y="408.968" transform="matrix(-0.9238 0.3828 -0.3828 -0.9238 770.2375 680.6712)" width="16" height="16"/>
<rect x="456.994" y="309.334" transform="matrix(-0.3827 0.9239 -0.9239 -0.3827 954.5972 36.8316)" width="16" height="56"/>
<rect x="329.296" y="437.026" transform="matrix(-0.9239 0.3827 -0.3827 -0.9239 826.8772 765.574)" width="16" height="56"/>
<rect x="8.391" y="454.96" transform="matrix(-0.7071 0.7071 -0.7071 -0.7071 380.315 768.3886)" width="45.256" height="16"/>
<rect x="68.988" y="309.384" transform="matrix(-0.9238 0.3828 -0.3828 -0.9238 269.6088 581.1196)" width="16" height="16"/>
<rect x="72.616" y="397.357" transform="matrix(-0.7071 0.7071 -0.7071 -0.7071 437.9076 629.3258)" width="32" height="16"/>
<rect x="108.849" y="369.028" transform="matrix(-0.7071 0.7071 -0.7071 -0.7071 466.0735 561.0016)" width="16" height="16"/>
<rect x="168.577" y="408.978" transform="matrix(-0.3828 0.9238 -0.9238 -0.3828 629.3876 413.4738)" width="16" height="16"/>
<rect x="0.947" y="329.282" transform="matrix(-0.9238 0.3828 -0.3828 -0.9238 184.8027 637.7908)" width="56" height="16"/>
<rect x="128.634" y="456.98" transform="matrix(-0.3828 0.9238 -0.9238 -0.3828 646.1564 498.2752)" width="56" height="16"/>
<path d="M325.238,201.78c-1.586-2.746-4.645-4.273-7.793-3.953l-44.922,4.887l-18.227-41.34c-1.277-2.902-4.148-4.773-7.32-4.773
	s-6.043,1.871-7.32,4.773l-18.227,41.34l-44.922-4.887c-3.113-0.32-6.203,1.207-7.793,3.953c-1.582,2.746-1.398,6.168,0.473,8.727
	l26.691,36.457l-26.691,36.457c-1.871,2.559-2.055,5.98-0.473,8.727c1.59,2.746,4.68,4.309,7.793,3.953l44.922-4.887l18.227,41.34
	c1.277,2.902,4.148,4.773,7.32,4.773s6.043-1.871,7.32-4.773l18.227-41.34l44.922,4.887c3.148,0.355,6.207-1.207,7.793-3.953
	c1.582-2.746,1.398-6.168-0.473-8.727l-26.691-36.457l26.691-36.457C326.636,207.948,326.82,204.526,325.238,201.78z
	 M281.702,242.237c-2.059,2.816-2.059,6.637,0,9.453l19.434,26.543l-32.707-3.559c-3.43-0.383-6.773,1.535-8.184,4.727
	l-13.27,30.098l-13.27-30.098c-1.289-2.926-4.176-4.773-7.316-4.773c-0.289,0-0.578,0.016-0.867,0.047l-32.707,3.559l19.434-26.543
	c2.059-2.816,2.059-6.637,0-9.453l-19.434-26.543l32.707,3.559c3.418,0.352,6.773-1.539,8.184-4.727l13.27-30.098l13.27,30.098
	c1.41,3.195,4.766,5.09,8.184,4.727l32.707-3.559L281.702,242.237z"/>
<g>
</g>
<g>
</g>
<g>
</g>
<g>
</g>
<g>
</g>
<g>
</g>
<g>
</g>
<g>
</g>
<g>
</g>
<g>
</g>
<g>
</g>
<g>
</g>
<g>
</g>
<g>
</g>
<g>
</g>
</svg>
